# xmcd
#
# Track frame offsets: 
#        150
#        43570
#        72155
#        104845
#        115687
#        193312
#
# Disc length: 2919 seconds
#
# Revision: 0
# Processed by: cddbd v1.5.2PL0 Copyright (c) Steve Scherf et al.
# Submitted via: ExactAudioCopyFreeDBPlugin 1.0
#
DISCID=550b6506
DTITLE=The Gary Moore Band - 1973 - Grinding Stone
DYEAR=1973
DGENRE=
TTITLE0=Grinding Stone
TTITLE1=Time To Heal
TTITLE2=Sail Across The Mountain
TTITLE3=The Energy Dance
TTITLE4=Spirit
TTITLE5=Boogie My Way Back Home
EXTD=
EXTT0=
EXTT1=
EXTT2=
EXTT3=
EXTT4=
EXTT5=
PLAYORDER=
